<?xml version="1.0" encoding="UTF-8" standalone="no"?>
<!DOCTYPE svg PUBLIC "-//W3C//DTD SVG 1.1//EN" "http://www.w3.org/Graphics/SVG/1.1/DTD/svg11.dtd">
<svg width="100%" height="100%" viewBox="0 0 3508 2481" version="1.1" xmlns="http://www.w3.org/2000/svg" xmlns:xlink="http://www.w3.org/1999/xlink" xml:space="preserve" xmlns:serif="http://www.serif.com/" style="fill-rule:evenodd;clip-rule:evenodd;stroke-linecap:round;stroke-linejoin:round;">
    <g transform="matrix(4.16665,0,0,4.16665,98.4145,5.46229)">
        <g transform="matrix(1,0,0,1,-23.1693,13.8683)">
            <path d="M40.654,0.071C40.654,0.071 40.654,0.071 40.654,0.071C37.232,0.071 34.417,2.886 34.417,6.307" style="fill:none;fill-rule:nonzero;stroke:rgb(0,0,255);stroke-width:0.01px;"/>
        </g>
        <g transform="matrix(1,0,0,1,-23.1693,13.8683)">
            <path d="M809.978,6.307C809.978,2.886 807.164,0.071 803.743,0.071" style="fill:none;fill-rule:nonzero;stroke:rgb(0,0,255);stroke-width:0.01px;"/>
        </g>
        <g transform="matrix(1,0,0,1,-23.1693,13.8683)">
            <path d="M803.743,271.063C807.164,271.062 809.978,268.247 809.978,264.827" style="fill:none;fill-rule:nonzero;stroke:rgb(0,0,255);stroke-width:0.01px;"/>
        </g>
        <g transform="matrix(1,0,0,1,-23.1693,13.8683)">
            <path d="M34.417,264.827C34.417,268.248 37.233,271.063 40.654,271.063" style="fill:none;fill-rule:nonzero;stroke:rgb(0,0,255);stroke-width:0.01px;"/>
        </g>
        <g transform="matrix(1,0,0,1,-23.1693,13.8683)">
            <path d="M34.416,6.3L34.416,264.823" style="fill:none;fill-rule:nonzero;stroke:rgb(0,0,255);stroke-width:0.01px;"/>
        </g>
        <g transform="matrix(1,0,0,1,-23.1693,13.8683)">
            <path d="M803.736,271.058L40.651,271.058" style="fill:none;fill-rule:nonzero;stroke:rgb(0,0,255);stroke-width:0.01px;"/>
        </g>
        <g transform="matrix(1,0,0,1,-23.1693,13.8683)">
            <path d="M809.971,6.3L809.971,264.823" style="fill:none;fill-rule:nonzero;stroke:rgb(0,0,255);stroke-width:0.01px;"/>
        </g>
        <g transform="matrix(1,0,0,1,-23.1693,13.8683)">
            <path d="M40.651,0.065L803.736,0.065" style="fill:none;fill-rule:nonzero;stroke:rgb(0,0,255);stroke-width:0.01px;"/>
        </g>
        <g transform="matrix(1.07807,0,0,1.07807,-17.406,12.5082)">
            <circle cx="33.43" cy="15.526" r="3.062" style="fill:none;stroke:rgb(0,0,255);stroke-width:0.01px;stroke-miterlimit:1.5;"/>
        </g>
        <g transform="matrix(1.07807,0,0,1.07807,-17.4212,253.445)">
            <circle cx="33.43" cy="15.526" r="3.062" style="fill:none;stroke:rgb(0,0,255);stroke-width:0.02px;stroke-miterlimit:1.5;"/>
        </g>
        <g transform="matrix(1.07807,0,0,1.07807,739.417,77.7237)">
            <circle cx="33.43" cy="15.526" r="3.062" style="fill:none;stroke:rgb(0,0,255);stroke-width:0.01px;stroke-miterlimit:1.5;"/>
        </g>
        <g transform="matrix(1.07807,0,0,1.07807,739.417,188.264)">
            <circle cx="33.43" cy="15.526" r="3.062" style="fill:none;stroke:rgb(0,0,255);stroke-width:0.01px;stroke-miterlimit:1.5;"/>
        </g>
    </g>
    <g transform="matrix(4.16665,0,0,4.16665,98.6455,1238.43)">
        <g transform="matrix(1,0,0,1,-23.1693,13.8683)">
            <path d="M40.654,0.071C40.654,0.071 40.654,0.071 40.654,0.071C37.232,0.071 34.417,2.886 34.417,6.307" style="fill:none;fill-rule:nonzero;stroke:rgb(0,0,255);stroke-width:0.01px;"/>
        </g>
        <g transform="matrix(1,0,0,1,-23.1693,13.8683)">
            <path d="M809.978,6.307C809.978,2.886 807.164,0.071 803.743,0.071" style="fill:none;fill-rule:nonzero;stroke:rgb(0,0,255);stroke-width:0.01px;"/>
        </g>
        <g transform="matrix(1,0,0,1,-23.1693,13.8683)">
            <path d="M803.743,271.063C807.164,271.062 809.978,268.247 809.978,264.827" style="fill:none;fill-rule:nonzero;stroke:rgb(0,0,255);stroke-width:0.01px;"/>
        </g>
        <g transform="matrix(1,0,0,1,-23.1693,13.8683)">
            <path d="M34.417,264.827C34.417,268.248 37.233,271.063 40.654,271.063" style="fill:none;fill-rule:nonzero;stroke:rgb(0,0,255);stroke-width:0.01px;"/>
        </g>
        <g transform="matrix(1,0,0,1,-23.1693,13.8683)">
            <path d="M34.416,6.3L34.416,264.823" style="fill:none;fill-rule:nonzero;stroke:rgb(0,0,255);stroke-width:0.01px;"/>
        </g>
        <g transform="matrix(1,0,0,1,-23.1693,13.8683)">
            <path d="M803.736,271.058L40.651,271.058" style="fill:none;fill-rule:nonzero;stroke:rgb(0,0,255);stroke-width:0.01px;"/>
        </g>
        <g transform="matrix(1,0,0,1,-23.1693,13.8683)">
            <path d="M809.971,6.3L809.971,264.823" style="fill:none;fill-rule:nonzero;stroke:rgb(0,0,255);stroke-width:0.01px;"/>
        </g>
        <g transform="matrix(1,0,0,1,-23.1693,13.8683)">
            <path d="M40.651,0.065L803.736,0.065" style="fill:none;fill-rule:nonzero;stroke:rgb(0,0,255);stroke-width:0.01px;"/>
        </g>
        <g transform="matrix(1.07807,0,0,1.07807,-17.406,12.5082)">
            <circle cx="33.43" cy="15.526" r="3.062" style="fill:none;stroke:rgb(0,0,255);stroke-width:0.01px;stroke-miterlimit:1.5;"/>
        </g>
        <g transform="matrix(1.07807,0,0,1.07807,-17.4212,253.445)">
            <circle cx="33.43" cy="15.526" r="3.062" style="fill:none;stroke:rgb(0,0,255);stroke-width:0.02px;stroke-miterlimit:1.5;"/>
        </g>
        <g transform="matrix(1.07807,0,0,1.07807,739.417,77.7237)">
            <circle cx="33.43" cy="15.526" r="3.062" style="fill:none;stroke:rgb(0,0,255);stroke-width:0.01px;stroke-miterlimit:1.5;"/>
        </g>
        <g transform="matrix(1.07807,0,0,1.07807,739.417,188.264)">
            <circle cx="33.43" cy="15.526" r="3.062" style="fill:none;stroke:rgb(0,0,255);stroke-width:0.01px;stroke-miterlimit:1.5;"/>
        </g>
    </g>
</svg>
